<svg width="24" height="24" viewBox="0 0 24 24" fill="none" xmlns="http://www.w3.org/2000/svg">
<path d="M12 2.175C6.8625 2.175 4.05 5.3625 4.05 9.525V20.2125H19.95V9.525C19.95 3.3 15.6375 3.4125 15.6375 3.4125C15.6375 3.4125 15.3375 2.175 12 2.175" fill="#DBB471"/>
<path d="M15.6 18.7125V16.2H8.4V18.7125C3.8625 18.825 2.925 19.5375 2.925 23.25H21.0375C21.075 19.5375 20.1375 18.825 15.6 18.7125" fill="#B386E2"/>
<path d="M6.3375 13.0125C6.3375 13.0125 5.2125 12.7125 5.2125 11.0625C5.2125 9.74999 6.075 9.52499 6.075 9.52499C9.15 9.52499 14.2125 5.58749 14.2125 5.58749C14.2125 5.58749 16.125 9.07499 17.9625 9.52499C17.9625 9.52499 18.8625 9.67499 18.8625 11.0625C18.8625 12.7125 17.6625 13.0125 17.6625 13.0125C17.6625 15.525 14.175 18.525 12.0375 18.525C9.9 18.525 6.3375 15.525 6.3375 13.0125" fill="#FED0AC"/>
<path d="M6.9375 7.1625C6.6 6.3375 6.4875 5.6625 6.4875 5.1375C6.4875 4.95 6.4125 4.8 6.3 4.6875L4.725 2.4375C4.275 1.6875 1.8 1.65 1.725 3.15L1.5375 7.125C1.4625 8.4 2.85 9.5625 3.075 9.4125L2.8875 11.55C2.85 11.9625 3.075 12.3 3.525 12.3375C3.975 12.375 4.3875 12.0375 4.3875 11.6625L4.7625 6.3375L5.1 6.6375C5.1 6.6375 5.3625 7.8 6.225 7.9125C6.825 7.9875 7.05 7.4625 6.9375 7.1625" fill="#FED0AC"/>
<path d="M3.375 7.7625C3.4125 7.35 3.0375 7.1625 3 7.575L2.8875 8.9625C2.4375 8.55 1.7625 7.65 1.8375 6.7875L2.1375 2.8125C2.175 2.5125 2.2875 2.2875 2.4375 2.1C2.025 2.2875 1.725 2.625 1.6875 3.1125L1.3875 7.125C1.275 8.5125 2.5875 9.525 2.85 9.7125L2.7375 11.5875C2.7 11.925 2.9625 12.2625 3.3375 12.3375C3.1875 12.1875 3.075 12 3.075 11.775L3.375 7.7625Z" fill="#E0A372"/>
<path d="M1.3875 3.1875C1.3875 3.1875 4.3125 3.3 4.9875 2.4L4.8 0.75H1.125L1.3875 3.1875Z" fill="#428BC1"/>
<path d="M5.4375 6.9375L5.4 6.7875C5.4 6.7875 4.95 6.225 4.8 5.7L4.7625 6.3375C4.875 6.525 4.9875 6.675 4.9875 6.675L5.025 6.825C5.1 7.125 5.325 7.7625 6.15 7.875C5.6625 7.65 5.5125 7.2 5.4375 6.9375" fill="#E0A372"/>
<path d="M17.0625 7.1625C17.4 6.3375 17.5125 5.6625 17.5125 5.1375C17.5125 4.95 17.5875 4.8 17.7 4.6875L19.275 2.4375C19.725 1.6875 22.2 1.65 22.275 3.15L22.4625 7.125C22.5375 8.4 21.15 9.5625 20.925 9.4125L21.1125 11.55C21.15 11.9625 20.925 12.3 20.475 12.3375C20.025 12.375 19.6125 12.0375 19.6125 11.6625L19.2375 6.3375L18.9 6.6375C18.9 6.6375 18.6375 7.8 17.775 7.9125C17.175 7.9875 16.95 7.4625 17.0625 7.1625" fill="#FED0AC"/>
<path d="M20.625 7.7625C20.5875 7.35 20.9625 7.1625 21 7.575L21.1125 8.9625C21.5625 8.55 22.2375 7.65 22.1625 6.7875L21.8625 2.8125C21.825 2.5125 21.7125 2.2875 21.5625 2.1C21.975 2.2875 22.3125 2.625 22.35 3.15L22.6125 7.125C22.725 8.5125 21.4125 9.525 21.15 9.7125L21.2625 11.5875C21.3 11.925 21.0375 12.2625 20.6625 12.3375C20.8125 12.1875 20.925 12 20.925 11.775L20.625 7.7625Z" fill="#E0A372"/>
<path d="M22.6125 3.1875C22.6125 3.1875 19.6875 3.3 19.0125 2.4L19.2 0.75H22.875L22.6125 3.1875Z" fill="#428BC1"/>
<path d="M18.5625 6.9375L18.6 6.7875C18.6 6.7875 19.05 6.225 19.2 5.7L19.2375 6.3375C19.125 6.525 19.0125 6.675 19.0125 6.675L18.975 6.825C18.9 7.125 18.675 7.7625 17.85 7.875C18.3375 7.65 18.4875 7.2 18.5625 6.9375Z" fill="#E0A372"/>
<path d="M12 16.05L9.375 15.6375C10.95 17.8875 13.05 17.8875 14.625 15.6375L12 16.05Z" fill="#E08672"/>
<path d="M13.05 15.5625C12.2625 15.2625 12 15.75 12 15.75C12 15.75 11.7375 15.3 10.95 15.5625C10.35 15.7875 9.375 15.6375 9.375 15.675C10.425 15.9 10.5375 16.35 12 16.35C13.425 16.35 13.575 15.9 14.625 15.675C14.625 15.675 13.65 15.7875 13.05 15.5625Z" fill="#B86E5D"/>
<path d="M12 14.85C10.9125 14.85 10.35 14.0625 10.9125 14.0625H13.125C13.65 14.0625 13.0875 14.85 12 14.85Z" fill="#E0A372"/>
<path d="M7.275 11.325C8.2125 13.0875 10.0875 13.0875 10.9875 11.325C11.025 11.25 10.9125 11.2125 10.7625 11.1C9.825 11.85 8.325 11.775 7.4625 11.1C7.35 11.2125 7.2375 11.25 7.275 11.325" fill="#664E27"/>
<path d="M13.0125 11.325C13.95 13.0875 15.825 13.0875 16.725 11.325C16.7625 11.25 16.65 11.2125 16.5 11.1C15.5625 11.85 14.0625 11.775 13.2 11.1C13.0875 11.2125 12.975 11.25 13.0125 11.325Z" fill="#664E27"/>
</svg>
